<svg xmlns="http://www.w3.org/2000/svg" viewBox="0 0 394.74 214.25"><defs><style>.cls-1,.cls-10,.cls-11,.cls-12,.cls-13,.cls-14,.cls-15,.cls-16,.cls-17,.cls-18,.cls-19,.cls-2,.cls-20,.cls-21,.cls-22,.cls-23,.cls-24,.cls-25,.cls-26,.cls-27,.cls-28,.cls-29,.cls-3,.cls-30,.cls-31,.cls-32,.cls-33,.cls-34,.cls-35,.cls-36,.cls-37,.cls-38,.cls-39,.cls-4,.cls-40,.cls-41,.cls-42,.cls-43,.cls-44,.cls-45,.cls-46,.cls-47,.cls-48,.cls-49,.cls-5,.cls-50,.cls-51,.cls-52,.cls-53,.cls-54,.cls-55,.cls-56,.cls-57,.cls-58,.cls-59,.cls-6,.cls-60,.cls-61,.cls-62,.cls-63,.cls-64,.cls-65,.cls-66,.cls-67,.cls-68,.cls-69,.cls-7,.cls-8,.cls-9{fill:none;stroke:#121526;stroke-linecap:round;}.cls-1{stroke-width:4.89px;}.cls-2{stroke-width:3.02px;}.cls-3{stroke-width:2.19px;}.cls-4{stroke-width:1.65px;}.cls-5{stroke-width:1.53px;}.cls-6{stroke-width:1.5px;}.cls-7{stroke-width:1.96px;}.cls-8{stroke-width:2.79px;}.cls-9{stroke-width:3.61px;}.cls-10{stroke-width:2.17px;}.cls-11{stroke-width:1.6px;}.cls-12{stroke-width:1.56px;}.cls-13{stroke-width:1.77px;}.cls-14{stroke-width:2.48px;}.cls-15{stroke-width:3.71px;}.cls-16{stroke-width:3.5px;}.cls-17{stroke-width:3.02px;}.cls-18{stroke-width:2.46px;}.cls-19{stroke-width:2.41px;}.cls-20{stroke-width:2.57px;}.cls-21{stroke-width:2.82px;}.cls-22{stroke-width:3.04px;}.cls-23{stroke-width:3.7px;}.cls-24{stroke-width:3.96px;}.cls-25{stroke-width:3.2px;}.cls-26{stroke-width:2.25px;}.cls-27{stroke-width:1.55px;}.cls-28{stroke-width:1.24px;}.cls-29{stroke-width:1.54px;}.cls-30{stroke-width:5.08px;}.cls-31{stroke-width:3.49px;}.cls-32{stroke-width:3.11px;}.cls-33{stroke-width:2.95px;}.cls-34{stroke-width:4.95px;}.cls-35{stroke-width:2.89px;}.cls-36{stroke-width:1.98px;}.cls-37{stroke-width:1.51px;}.cls-38{stroke-width:1.2px;}.cls-39{stroke-width:1.3px;}.cls-40{stroke-width:1.46px;}.cls-41{stroke-width:1.92px;}.cls-42{stroke-width:2.83px;}.cls-43{stroke-width:3.93px;}.cls-44{stroke-width:3.41px;}.cls-45{stroke-width:2.22px;}.cls-46{stroke-width:1.36px;}.cls-47{stroke-width:1.21px;}.cls-48{stroke-width:1.13px;}.cls-49{stroke-width:1.25px;}.cls-50{stroke-width:1.87px;}.cls-51{stroke-width:3.06px;}.cls-52{stroke-width:1.68px;}.cls-53{stroke-width:5.28px;}.cls-54{stroke-width:4.43px;}.cls-55{stroke-width:4.1px;}.cls-56{stroke-width:4.08px;}.cls-57{stroke-width:4.13px;}.cls-58{stroke-width:4.14px;}.cls-59{stroke-width:4.33px;}.cls-60{stroke-width:5px;}.cls-61{stroke-width:3.73px;}.cls-62{stroke-width:2.96px;}.cls-63{stroke-width:2.65px;}.cls-64{stroke-width:2.72px;}.cls-65{stroke-width:3.07px;}.cls-66{stroke-width:4.04px;}.cls-67{stroke-width:2.93px;}.cls-68{stroke-width:2.09px;}.cls-69{stroke-width:2.15px;}</style></defs><g id="Capa_2" data-name="Capa 2"><g id="Capa_1-2" data-name="Capa 1"><path class="cls-1" d="M113.53,211.8c8-2.84,7-4,14-8"/><path class="cls-2" d="M127.53,203.8c6.83-7.23,7.45-6.34,13-15"/><path class="cls-3" d="M140.53,188.8c10-11.34,9.33-11.73,18-24"/><path class="cls-4" d="M158.53,164.8c12.81-19.87,12.51-19.84,23-41"/><path class="cls-5" d="M181.53,123.8c9.71-21.73,10.31-21.37,18-44"/><path class="cls-6" d="M199.53,79.8c8-20.74,7.71-20.73,14-42"/><path class="cls-7" d="M213.53,37.8c3.25-12.42,3.47-12.24,5-25"/><path class="cls-8" d="M218.53,12.8c.56-12.31.75-5.42,0-11"/><path class="cls-9" d="M218.53,1.8c-1.38,9-.94,2.19-3,18"/><path class="cls-10" d="M215.53,19.8c-3.81,15.89-2.88,16-6,32"/><path class="cls-11" d="M209.53,51.8c-3.43,24.44-3.31,24.39-5,49"/><path class="cls-12" d="M204.53,100.8c-1.29,22.52-1.43,22.44-1,45"/><path class="cls-13" d="M203.53,145.8c-.48,17.32.21,17,2,34"/><path class="cls-14" d="M205.53,179.8c2.36,11.83,1,6.82,5,13"/><path class="cls-15" d="M210.53,192.8c3.05-4.27,1.86.83,4-9"/><path class="cls-16" d="M214.53,183.8c.83-5.61,1.05-5.27,0-11"/><path class="cls-17" d="M214.53,172.8c-.36-8.29-1.17-7.61-4-15"/><path class="cls-18" d="M210.53,157.8c-6.15-11.41-5.86-10.79-15-20"/><path class="cls-19" d="M195.53,137.8c-8.65-8.8-8.15-7.91-19-13"/><path class="cls-20" d="M176.53,124.8c-9.12-2.53-8.15-3.3-18-2"/><path class="cls-21" d="M158.53,122.8c-8.3.52-7.62.47-15,4"/><path class="cls-22" d="M143.53,126.8c-6.21,3.84-5.8,3-10,9"/><path class="cls-23" d="M133.53,135.8c-1.73,3.32-1.71,2.34-1,6"/><path class="cls-24" d="M132.53,141.8c1.2,3.82.77,2.82,4,5"/><path class="cls-25" d="M136.53,146.8c7.43,2,6.7,2.82,15,3"/><path class="cls-26" d="M151.53,149.8c14.48,1.76,14.43,2,29,3"/><path class="cls-27" d="M180.53,152.8c26.46,2.68,26.48,2.26,53,4"/><path class="cls-28" d="M233.53,156.8c33.5,1.68,33.46,1.68,67,2"/><path class="cls-29" d="M300.53,158.8c18.09.35,18,.18,36-1"/><path class="cls-30" d="M224.53,102.8c-.7,3-.5,3-1,6"/><path class="cls-31" d="M223.53,108.8c-.28,7-.7,7-1,14"/><path class="cls-32" d="M222.53,122.8c-1,7.5-.78,7.53-2,15"/><path class="cls-33" d="M220.53,137.8c0,8.34-1,8-2,16"/><path class="cls-34" d="M102.53,191.8c4.52,2.47,4.5,1,9,2"/><path class="cls-35" d="M111.53,193.8c10.14-2,10-1,20-5"/><path class="cls-36" d="M131.53,188.8c18-5.93,18.14-5.5,36-12"/><path class="cls-37" d="M167.53,176.8c25.32-7.66,25-8.43,50-17"/><path class="cls-38" d="M217.53,159.8c30.69-12.05,30.82-11.66,61-25"/><path class="cls-39" d="M278.53,134.8c25.12-9.79,24.69-10.55,49-22"/><path class="cls-40" d="M327.53,112.8c19.83-11,20.12-10.29,39-23"/><path class="cls-41" d="M366.53,89.8c10.78-6.19,10.33-6.48,20-14"/><path class="cls-42" d="M386.53,75.8c4.77-3.71,3.78-3.19,6-8"/><path class="cls-43" d="M392.53,67.8c.33-4.33.77-2.71-2-6"/><path class="cls-44" d="M390.53,61.8c-5.82-2.73-4.67-3.33-12-4"/><path class="cls-45" d="M378.53,57.8c-15.88-3.78-15.82-3.23-32-5"/><path class="cls-46" d="M346.53,52.8c-30.5-2-30.38-2.28-61-2"/><path class="cls-47" d="M285.53,50.8c-33.12-.6-33,0-66,2"/><path class="cls-48" d="M219.53,52.8c-36.78,2.84-36.62,2.9-73,9"/><path class="cls-48" d="M146.53,61.8c-37.3,6.83-37.28,6.34-74,16"/><path class="cls-49" d="M72.53,77.8c-25.44,6.36-25.3,6.33-50,15"/><path class="cls-50" d="M22.53,92.8c-19.55,5.64-10.94,3.86-21,10"/><path class="cls-51" d="M1.53,102.8c7.72,4.36-1,3.14,16,5"/><path class="cls-52" d="M17.53,107.8c24,.33,23.72,1.86,48,0"/><path class="cls-53" d="M225.53,104.8c-1.18,3.46-1,3.5-2,7"/><path class="cls-54" d="M223.53,111.8a55.2,55.2,0,0,0-1,6"/><path class="cls-55" d="M222.53,117.8c-.46,3.51-.54,3.5-1,7"/><path class="cls-56" d="M221.53,124.8c-.5,3-.46,3-1,6"/><path class="cls-57" d="M220.53,130.8l-1,6"/><path class="cls-58" d="M219.53,136.8c-.8,3-.5,3-1,6"/><path class="cls-59" d="M218.53,142.8c-1.6,5.81-.3,4.48,0,9"/><path class="cls-60" d="M218.53,151.8c3.15,2.24.9,1.81,5,1"/><path class="cls-61" d="M223.53,152.8c3.39-4.59,4.15-2.76,7-9"/><path class="cls-62" d="M230.53,143.8c5.82-6.25,5.39-6.59,11-13"/><path class="cls-63" d="M241.53,130.8c5.8-8.64,6.32-8.25,12-17"/><path class="cls-64" d="M253.53,113.8c5.86-6.75,5.3-7.14,11-14"/><path class="cls-65" d="M264.53,99.8c5-11.26,3.36-4.75,6-10"/><path class="cls-66" d="M270.53,89.8c.13,8.09,1.45,1.74-1,16"/><path class="cls-67" d="M269.53,105.8c-1.85,9.54-1.37,9.59-4,19"/><path class="cls-19" d="M265.53,124.8c-3.52,12.4-2.85,12.54-6,25"/><path class="cls-68" d="M259.53,149.8c-3.39,15.41-3,15.4-5,31"/><path class="cls-69" d="M254.53,180.8c-3.55,14.23-1.39,13.41-1,27" /></g></g></svg>